<?xml version="1.0" standalone="no"?>
<!DOCTYPE svg PUBLIC "-//W3C//DTD SVG 20010904//EN"
 "http://www.w3.org/TR/2001/REC-SVG-20010904/DTD/svg10.dtd">
<svg version="1.0" xmlns="http://www.w3.org/2000/svg"
 width="512.000000pt" height="512.000000pt" viewBox="0 0 512.000000 512.000000"
 preserveAspectRatio="xMidYMid meet">

<g transform="translate(0.000000,512.000000) scale(0.100000,-0.100000)"
fill="#000000" stroke="none">
<path d="M815 5106 c-73 -32 -95 -83 -95 -214 0 -118 11 -159 50 -197 l30 -29
0 -493 0 -494 -29 -10 c-33 -11 -55 -52 -45 -83 9 -31 34 -56 56 -56 17 0 18
-34 18 -970 0 -936 -1 -970 -18 -970 -22 0 -47 -25 -56 -56 -10 -31 12 -72 45
-83 l29 -10 0 -492 0 -492 -34 -38 c-41 -45 -49 -87 -44 -222 3 -103 14 -128
72 -171 l27 -21 1739 0 1739 0 27 21 c58 43 69 68 72 171 5 135 -3 177 -44
222 l-34 38 0 492 0 492 29 10 c27 9 51 44 51 73 0 22 -40 66 -61 66 -19 0
-19 19 -19 970 0 951 0 970 19 970 21 0 61 44 61 66 0 29 -24 64 -51 73 l-29
10 0 492 0 492 34 38 c41 45 49 87 44 222 -3 103 -14 128 -72 171 -27 21 -27
21 -1754 23 -1424 2 -1732 0 -1757 -11z m3435 -221 l0 -85 -1690 0 -1690 0 0
85 0 85 1690 0 1690 0 0 -85z m-80 -720 l0 -484 -301 -3 -301 -3 -19 -24 c-25
-31 -24 -69 3 -98 l21 -23 299 0 298 0 0 -970 0 -970 -1179 0 c-1131 0 -1180
-1 -1202 -18 -30 -25 -30 -75 0 -105 l22 -22 1179 -3 1180 -2 0 -485 0 -485
-1610 0 -1610 0 0 485 0 484 301 3 301 3 19 24 c25 31 24 75 -3 101 -21 19
-34 20 -320 20 l-298 0 0 970 0 970 1179 0 c1131 0 1180 1 1202 18 30 25 30
75 0 105 l-22 22 -1179 3 -1180 2 0 485 0 485 1610 0 1610 0 0 -485z m80
-3930 l0 -85 -1690 0 -1690 0 0 85 0 85 1690 0 1690 0 0 -85z"/>
<path d="M2533 3350 c-26 -11 -105 -109 -206 -255 -322 -470 -397 -799 -241
-1062 154 -259 498 -344 759 -188 168 101 266 274 266 470 1 215 -99 460 -318
780 -105 153 -180 245 -210 256 -13 5 -25 9 -26 8 -1 0 -12 -4 -24 -9z m94
-278 c399 -565 440 -911 130 -1106 -76 -47 -216 -62 -314 -33 -126 38 -232
144 -270 270 -58 196 47 483 320 869 34 48 64 87 67 87 3 0 33 -39 67 -87z"/>
<path d="M2671 2371 c-11 -11 -23 -36 -26 -55 -8 -42 -37 -69 -92 -85 -46 -13
-63 -34 -63 -79 0 -42 30 -65 85 -64 116 3 215 104 215 220 0 41 -4 54 -22 66
-31 22 -74 20 -97 -3z"/>
</g>
</svg>
