<?xml version="1.0" standalone="no"?>
<!DOCTYPE svg PUBLIC "-//W3C//DTD SVG 20010904//EN"
 "http://www.w3.org/TR/2001/REC-SVG-20010904/DTD/svg10.dtd">
<svg version="1.0" xmlns="http://www.w3.org/2000/svg"
 width="512.000000pt" height="512.000000pt" viewBox="0 0 512.000000 512.000000"
 preserveAspectRatio="xMidYMid meet">

<g transform="translate(0.000000,512.000000) scale(0.100000,-0.100000)"
fill="#000000" stroke="none">
<path d="M3585 4690 c-12 -4 -27 -15 -34 -24 -9 -11 -32 -226 -75 -700 -34
-377 -64 -688 -68 -691 -3 -4 -99 -30 -212 -60 -204 -53 -206 -53 -211 -32 -4
21 -105 1149 -105 1175 0 7 -11 24 -25 37 l-24 25 -274 0 c-253 0 -277 -1
-298 -19 -22 -18 -25 -36 -88 -742 l-66 -724 -203 -53 c-112 -29 -206 -51
-209 -49 -2 3 -30 289 -62 636 -54 600 -58 633 -79 654 -22 21 -29 22 -275 25
-269 4 -316 -2 -335 -40 -18 -36 -85 -814 -72 -838 23 -44 76 -52 114 -17 24
21 26 33 41 188 8 92 15 174 15 183 0 15 21 16 213 14 l212 -3 38 -419 c21
-230 34 -422 30 -426 -9 -8 -574 -153 -578 -148 -1 2 3 68 11 148 20 220 19
244 -12 269 -33 26 -64 27 -91 1 -27 -24 -29 -36 -49 -265 -8 -104 -19 -193
-22 -196 -4 -3 -101 -30 -215 -59 -174 -45 -211 -57 -228 -78 -18 -24 -19 -47
-19 -803 l0 -779 -75 0 c-46 0 -90 -6 -113 -15 -55 -24 -109 -81 -128 -138
-37 -113 13 -228 123 -283 37 -18 79 -19 1186 -19 l1149 0 19 24 c22 28 25 69
5 97 -14 19 -40 19 -1156 24 l-1142 5 -24 28 c-29 34 -31 66 -3 101 l20 26
2365 0 2365 0 24 -25 c32 -31 32 -66 1 -102 l-24 -28 -1111 -3 -1110 -2 -20
-26 c-27 -35 -26 -57 3 -91 l24 -28 1119 0 c1078 0 1119 1 1156 19 110 55 160
170 123 283 -19 57 -73 114 -128 138 -25 10 -69 15 -132 15 l-95 0 -3 581 -3
581 -28 24 c-35 30 -59 30 -94 0 l-28 -24 -3 -581 -3 -581 -1307 2 -1307 3 -3
572 -2 572 -26 20 c-26 21 -36 21 -539 21 -503 0 -513 0 -539 -21 l-26 -20 -2
-572 -3 -572 -178 -3 -177 -2 0 739 c0 696 1 740 18 745 26 8 1403 363 3865
996 l227 58 0 -549 c0 -599 1 -611 54 -625 44 -11 76 4 92 41 21 51 21 1209 0
1260 -23 55 -46 55 -258 0 -104 -26 -190 -46 -192 -44 -2 2 -26 259 -54 572
-29 312 -56 576 -62 588 -6 11 -22 24 -36 29 -31 12 -521 12 -549 0z m460
-227 c4 -49 9 -96 11 -105 5 -17 -9 -18 -196 -18 l-201 0 6 58 c3 31 8 78 11
105 l6 47 178 0 178 0 7 -87z m-1301 -270 c3 -42 6 -89 6 -105 l0 -28 -196 0
-196 0 7 88 c10 135 -11 122 194 122 l178 0 7 -77z m1330 -50 c5 -37 36 -392
59 -657 l2 -29 -282 -73 c-181 -46 -283 -68 -283 -61 0 24 71 803 76 835 l5
32 209 0 208 0 6 -47z m-2640 -170 c2 -16 8 -63 11 -105 l7 -78 -197 0 -197 0
7 98 c4 53 9 100 12 105 2 4 82 7 178 7 l173 0 6 -27z m1336 -80 c0 -10 16
-187 35 -393 19 -205 33 -375 32 -376 -6 -6 -568 -146 -572 -143 -2 3 15 213
37 467 l42 462 213 0 c196 0 213 -1 213 -17z m-950 -2493 l0 -520 -415 0 -415
0 0 520 0 520 415 0 415 0 0 -520z"/>
<path d="M2426 2469 l-26 -20 0 -223 c0 -214 1 -224 21 -242 19 -17 38 -19
200 -19 242 0 224 -21 224 261 l0 216 -28 24 c-27 23 -33 24 -196 24 -155 0
-170 -2 -195 -21z m269 -244 l0 -110 -72 -3 -73 -3 0 116 0 116 73 -3 72 -3 0
-110z"/>
<path d="M3186 2469 l-26 -20 0 -223 c0 -214 1 -224 21 -242 19 -17 38 -19
200 -19 240 0 223 -19 227 247 3 217 -2 247 -44 267 -15 7 -88 11 -188 11
-150 0 -165 -2 -190 -21z m272 -241 l-3 -113 -72 -3 -73 -3 0 116 0 115 75 0
76 0 -3 -112z"/>
<path d="M3946 2469 l-26 -20 0 -219 c0 -288 -19 -265 220 -265 l182 0 24 28
c24 28 24 31 24 227 0 125 -4 208 -11 223 -18 41 -49 47 -223 47 -150 0 -165
-2 -190 -21z m272 -241 l-3 -113 -72 -3 -73 -3 0 116 0 115 75 0 76 0 -3 -112z"/>
<path d="M2420 1700 c-19 -19 -20 -33 -20 -240 0 -207 1 -221 20 -240 19 -19
33 -20 199 -20 243 0 225 -17 229 226 6 308 17 294 -228 294 -167 0 -181 -1
-200 -20z m280 -240 l0 -110 -75 0 -75 0 0 110 0 110 75 0 75 0 0 -110z"/>
<path d="M3180 1700 c-19 -19 -20 -33 -20 -240 0 -207 1 -221 20 -240 19 -19
33 -20 199 -20 246 0 226 -23 226 260 0 283 20 260 -226 260 -166 0 -180 -1
-199 -20z m280 -240 l0 -110 -75 0 -75 0 0 110 0 110 75 0 75 0 0 -110z"/>
<path d="M3940 1700 c-19 -19 -20 -33 -20 -240 0 -207 1 -221 20 -240 19 -19
33 -20 203 -20 174 0 185 1 203 21 17 19 19 39 19 241 0 281 20 258 -226 258
-166 0 -180 -1 -199 -20z m280 -240 l0 -110 -75 0 -75 0 0 110 0 110 75 0 75
0 0 -110z"/>
</g>
</svg>
