<?xml version="1.0" standalone="no"?>
<!DOCTYPE svg PUBLIC "-//W3C//DTD SVG 20010904//EN"
 "http://www.w3.org/TR/2001/REC-SVG-20010904/DTD/svg10.dtd">
<svg version="1.0" xmlns="http://www.w3.org/2000/svg"
 width="512.000000pt" height="512.000000pt" viewBox="0 0 512.000000 512.000000"
 preserveAspectRatio="xMidYMid meet">

<g transform="translate(0.000000,512.000000) scale(0.100000,-0.100000)"
fill="#000000" stroke="none">
<path d="M2095 5111 c-11 -5 -29 -19 -40 -31 -20 -22 -20 -40 -25 -778 l-5
-756 -100 -38 c-55 -21 -103 -38 -107 -38 -5 0 -8 92 -8 204 0 190 -1 205 -20
229 -12 15 -38 31 -58 37 -49 13 -535 13 -584 0 -20 -6 -46 -22 -58 -37 -20
-25 -20 -36 -20 -720 l0 -695 -507 -861 c-279 -474 -518 -891 -532 -927 -33
-85 -36 -245 -7 -329 56 -161 176 -283 341 -347 48 -18 92 -19 1095 -22 744
-2 1062 0 1105 8 89 17 199 75 265 140 l56 55 52 -52 c59 -58 117 -95 200
-126 55 -21 72 -22 612 -25 387 -2 573 0 615 8 203 39 382 215 424 418 7 36
11 298 11 805 l0 752 140 140 c150 149 180 197 180 284 0 92 -57 183 -144 229
l-51 27 -854 3 c-505 1 -882 -1 -923 -7 -167 -23 -288 -123 -356 -295 -14 -36
-17 -123 -22 -696 l-5 -656 -478 739 -477 738 2 367 3 367 75 37 c41 20 126
53 187 73 87 28 118 44 138 67 l25 30 0 739 0 739 265 0 265 0 0 -704 c0 -387
3 -717 6 -735 10 -49 47 -77 127 -96 332 -80 619 -245 829 -475 39 -44 75 -80
79 -80 10 0 159 121 159 129 0 4 -39 49 -87 101 -158 168 -366 318 -573 411
-104 46 -225 90 -287 103 l-33 7 -2 737 c-3 693 -4 739 -21 764 -10 14 -32 31
-49 37 -37 13 -792 14 -823 2z m-495 -2033 c0 -616 1 -655 18 -683 10 -16 263
-407 561 -868 298 -461 552 -857 564 -880 32 -61 35 -165 8 -237 -26 -70 -88
-134 -161 -169 l-55 -26 -1040 0 -1040 0 -47 22 c-66 30 -133 96 -164 160 -38
76 -38 175 -2 253 14 30 253 442 532 915 l506 859 0 653 0 653 160 0 160 0 0
-652z m3300 -647 c5 -11 10 -23 10 -27 0 -3 -72 -80 -160 -169 l-159 -162 -3
-804 -3 -804 -26 -55 c-37 -80 -81 -125 -157 -162 l-67 -33 -505 -3 c-524 -3
-597 1 -669 38 -51 26 -115 92 -143 148 l-23 47 -3 923 c-3 1017 -6 956 59
1021 64 64 7 61 966 61 852 0 873 0 883 -19z"/>
<path d="M1336 2098 c-55 -88 -882 -1500 -893 -1526 -18 -42 -4 -92 34 -122
25 -19 40 -20 414 -20 l389 0 0 105 0 105 -275 0 c-151 0 -275 2 -275 4 0 2
178 307 396 678 218 370 398 680 401 688 2 10 -24 31 -81 63 -46 26 -86 47
-90 47 -3 0 -12 -10 -20 -22z"/>
<path d="M1810 1065 l0 -105 110 0 110 0 0 105 0 105 -110 0 -110 0 0 -105z"/>
<path d="M2134 737 c-2 -7 -3 -56 -2 -108 l3 -94 105 0 105 0 0 105 0 105
-103 3 c-79 2 -104 0 -108 -11z"/>
<path d="M3200 1920 l0 -110 160 0 160 0 0 110 0 110 -160 0 -160 0 0 -110z"/>
<path d="M4160 1335 l0 -695 -160 0 -160 0 0 -105 0 -105 234 0 234 0 31 31
31 31 0 769 0 769 -105 0 -105 0 0 -695z"/>
<path d="M3200 1495 l0 -105 105 0 105 0 0 105 0 105 -105 0 -105 0 0 -105z"/>
<path d="M3200 1065 l0 -105 160 0 160 0 0 105 0 105 -160 0 -160 0 0 -105z"/>
<path d="M3200 640 l0 -110 105 0 105 0 0 110 0 110 -105 0 -105 0 0 -110z"/>
<path d="M747 4995 c-47 -18 -106 -60 -139 -100 -82 -98 -94 -240 -32 -356 81
-147 273 -206 424 -129 51 26 115 93 142 148 33 68 33 207 -1 272 -32 62 -86
117 -146 148 -62 32 -187 40 -248 17z m153 -210 c66 -34 76 -121 19 -169 -94
-79 -223 42 -148 138 36 46 80 56 129 31z"/>
<path d="M4047 4350 c-67 -26 -112 -63 -151 -123 -126 -194 -18 -443 212 -487
96 -18 193 12 271 85 69 65 96 129 96 230 -1 97 -25 156 -95 226 -84 83 -223
112 -333 69z m151 -201 c69 -24 87 -116 33 -170 -71 -71 -183 -12 -172 91 4
31 27 64 56 76 37 16 44 17 83 3z"/>
<path d="M311 4259 c-77 -13 -137 -46 -202 -109 -75 -74 -102 -143 -103 -260
-1 -75 3 -93 30 -150 39 -83 101 -145 184 -184 57 -27 75 -31 150 -30 117 1
186 28 260 103 65 66 95 124 108 206 40 251 -175 465 -427 424z m135 -225 c47
-22 76 -67 82 -125 5 -59 -10 -101 -50 -134 -147 -124 -345 68 -226 220 41 53
128 70 194 39z"/>
<path d="M4471 3619 c-77 -13 -137 -46 -202 -109 -75 -74 -102 -143 -103 -260
-1 -75 3 -93 30 -150 39 -83 101 -145 184 -184 57 -27 75 -31 150 -30 117 1
186 28 260 103 65 66 95 124 108 206 40 251 -175 465 -427 424z m135 -225 c47
-22 76 -67 82 -125 5 -59 -10 -101 -50 -134 -147 -124 -345 68 -226 220 41 53
128 70 194 39z"/>
<path d="M210 3095 l0 -105 110 0 110 0 0 105 0 105 -110 0 -110 0 0 -105z"/>
<path d="M2030 2985 l0 -105 105 0 105 0 0 105 0 105 -105 0 -105 0 0 -105z"/>
<path d="M534 2657 c-2 -7 -3 -56 -2 -108 l3 -94 105 0 105 0 0 105 0 105
-103 3 c-79 2 -104 0 -108 -11z"/>
<path d="M2134 2657 c-2 -7 -3 -56 -2 -108 l3 -94 105 0 105 0 0 105 0 105
-103 3 c-79 2 -104 0 -108 -11z"/>
<path d="M2350 2135 l0 -105 105 0 105 0 0 105 0 105 -105 0 -105 0 0 -105z"/>
</g>
</svg>
