<?xml version="1.0" standalone="no"?>
<!DOCTYPE svg PUBLIC "-//W3C//DTD SVG 20010904//EN"
 "http://www.w3.org/TR/2001/REC-SVG-20010904/DTD/svg10.dtd">
<svg version="1.0" xmlns="http://www.w3.org/2000/svg"
 width="512.000000pt" height="512.000000pt" viewBox="0 0 512.000000 512.000000"
 preserveAspectRatio="xMidYMid meet">

<g transform="translate(0.000000,512.000000) scale(0.100000,-0.100000)"
fill="#000000" stroke="none">
<path d="M1715 5104 c-38 -8 -113 -36 -165 -61 -158 -78 -288 -224 -345 -390
-129 -371 69 -769 448 -897 67 -22 201 -36 275 -27 35 4 65 4 68 0 2 -4 33
-84 68 -178 l63 -171 -53 -33 c-76 -46 -182 -141 -243 -217 -64 -80 -141 -231
-166 -325 -10 -38 -19 -71 -20 -72 -1 -2 -460 23 -491 27 0 0 -6 25 -13 55
-46 206 -232 385 -446 430 -88 18 -142 18 -230 0 -313 -66 -519 -381 -450
-689 48 -217 198 -376 419 -441 60 -18 216 -21 278 -5 192 49 345 185 410 362
21 58 21 58 57 53 20 -2 128 -10 241 -16 113 -6 208 -13 213 -16 4 -2 7 -19 7
-37 0 -119 100 -356 206 -487 l65 -81 -207 -276 c-114 -153 -210 -281 -214
-286 -5 -4 -37 3 -72 17 -93 38 -151 49 -259 49 -383 1 -689 -307 -689 -692 0
-308 193 -573 485 -666 434 -138 879 173 902 631 8 169 -37 318 -139 453 l-48
63 212 282 c116 155 213 284 215 286 2 3 20 -4 41 -14 153 -74 260 -99 427
-100 228 0 408 65 593 214 34 28 65 51 68 51 5 0 754 -569 778 -591 6 -6 1
-33 -13 -71 -32 -86 -40 -238 -17 -327 53 -208 217 -374 421 -426 76 -19 214
-19 289 0 207 54 378 232 421 440 28 135 15 243 -46 373 -141 302 -534 423
-809 248 -30 -19 -65 -40 -76 -47 -19 -10 -61 19 -417 292 l-396 302 24 48
c72 141 99 256 99 419 1 153 -29 283 -94 410 l-20 39 52 39 c200 147 438 321
464 340 l32 22 46 -36 c314 -239 779 -83 898 301 30 97 30 233 0 330 -91 294
-394 470 -690 400 -209 -49 -383 -225 -433 -435 -20 -88 -15 -215 14 -299 l24
-73 -91 -68 c-50 -37 -171 -126 -270 -198 l-178 -131 -63 54 c-194 164 -418
244 -645 231 -58 -4 -123 -9 -146 -12 l-41 -6 -65 174 c-74 196 -77 167 22
243 108 84 200 225 237 365 24 90 23 273 -2 355 -36 121 -92 216 -178 304
-166 170 -408 244 -642 195z m270 -236 c283 -71 428 -421 279 -676 -155 -264
-514 -312 -729 -97 -215 215 -167 574 97 729 103 60 228 76 353 44z m2467
-715 c75 -33 149 -112 177 -188 64 -171 -16 -365 -181 -441 -87 -39 -196 -40
-280 -2 -75 35 -138 94 -174 165 -26 52 -29 68 -29 153 0 85 3 101 29 153 86
170 283 239 458 160z m-1772 -907 c102 -19 175 -48 262 -105 268 -174 383
-517 274 -817 -105 -287 -400 -482 -697 -460 -180 14 -322 78 -444 201 -126
127 -185 246 -207 418 -20 161 20 322 113 461 157 235 427 351 699 302z
m-1945 -258 c261 -135 255 -499 -10 -628 -42 -21 -65 -25 -140 -25 -82 0 -97
3 -157 33 -221 108 -260 402 -75 567 72 66 132 86 242 82 73 -3 99 -8 140 -29z
m3932 -1620 c29 -10 75 -40 103 -65 185 -166 138 -467 -88 -571 -173 -80 -378
-3 -459 172 -24 52 -28 74 -28 146 0 71 4 94 26 140 80 170 267 244 446 178z
m-3368 -227 c332 -103 437 -524 191 -771 -92 -91 -198 -134 -330 -132 -410 4
-613 497 -323 787 119 120 303 166 462 116z"/>
</g>
</svg>
